<svg xmlns="http://www.w3.org/2000/svg" xmlns:xlink="http://www.w3.org/1999/xlink" width="1080" zoomAndPan="magnify" viewBox="0 0 810 809.999993" height="1080" preserveAspectRatio="xMidYMid meet" version="1.0"><defs><clipPath id="21853efb54"><path d="M 51.820312 34.296875 L 758.320312 34.296875 L 758.320312 776.046875 L 51.820312 776.046875 Z M 51.820312 34.296875 " clip-rule="nonzero"/></clipPath></defs><g clip-path="url(#21853efb54)"><path fill="#ffffff" d="M 51.953125 69.617188 C 51.953125 50.109375 67.761719 34.296875 87.265625 34.296875 L 722.875 34.296875 C 742.378906 34.296875 758.1875 50.109375 758.1875 69.617188 L 758.1875 175.582031 C 758.1875 185.894531 753.679688 195.6875 745.855469 202.398438 L 511.003906 403.753906 L 511.003906 670.082031 C 511.003906 683.460938 503.449219 695.691406 491.484375 701.671875 L 350.238281 772.316406 C 339.378906 777.75 326.496094 777.21875 316.117188 770.914062 C 305.742188 764.613281 299.328125 753.417969 299.140625 741.277344 L 293.867188 403.738281 L 63.984375 202.140625 C 56.339844 195.433594 51.953125 185.753906 51.953125 175.582031 Z M 122.578125 104.9375 L 122.578125 159.574219 L 352.207031 360.953125 C 359.710938 367.527344 364.082031 376.976562 364.234375 386.960938 L 368.875 684.011719 L 440.382812 648.253906 L 440.382812 387.511719 C 440.382812 377.199219 444.886719 367.402344 452.710938 360.691406 L 687.5625 159.335938 L 687.5625 104.9375 Z M 122.578125 104.9375 " fill-opacity="1" fill-rule="evenodd"/></g></svg>